<svg width="22" height="27" viewBox="0 0 22 27" fill="none" xmlns="http://www.w3.org/2000/svg">
<path id="N" d="M0.236328 2.23242C0.236328 0.779297 0.869141 0.0527344 2.13477 0.0527344H2.85547C3.33594 0.0527344 3.66992 0.111328 3.85742 0.228516C4.20898 0.439453 4.53711 0.773438 4.8418 1.23047L16.1621 17.8945C16.5957 18.5273 16.9355 19.1074 17.1816 19.6348L17.9023 21.1465C17.9141 21.1699 17.9316 21.1816 17.9551 21.1816C17.9902 21.1816 17.9961 21.0293 17.9727 20.7246C17.9492 20.4199 17.8906 19.9805 17.7969 19.4062C17.7031 18.8203 17.6562 18.2402 17.6562 17.666V1.125C17.6562 0.820313 17.7441 0.568359 17.9199 0.369141C18.1074 0.158203 18.3301 0.0527344 18.5879 0.0527344H20.9082C21.1543 0.0527344 21.3652 0.158203 21.541 0.369141C21.7285 0.568359 21.8223 0.820313 21.8223 1.125V25.2422C21.8223 25.7109 21.6758 26.0742 21.3828 26.332C20.8906 26.7773 20.4453 27 20.0469 27H18.9746C18.3887 27 17.9609 26.9062 17.6914 26.7188C17.293 26.4141 16.8008 25.8398 16.2148 24.9961C9.52344 15.2109 5.9375 9.92578 5.45703 9.14062L3.99805 6.69727C3.97461 6.66211 3.93945 6.64453 3.89258 6.64453C3.85742 6.64453 3.85742 6.73242 3.89258 6.9082C3.92773 7.08398 3.97461 7.38281 4.0332 7.80469C4.10352 8.21484 4.16797 8.67188 4.22656 9.17578C4.34375 10.3477 4.40234 11.4375 4.40234 12.4453V25.9277C4.40234 26.2207 4.30859 26.4727 4.12109 26.6836C3.94531 26.8945 3.72852 27 3.4707 27H1.15039C0.904297 27 0.6875 26.8945 0.5 26.6836C0.324219 26.4727 0.236328 26.2207 0.236328 25.9277V2.23242Z" fill="#71F85B"/>
</svg>
